<mxfile host="app.diagrams.net" agent="Mozilla/5.0 (Windows NT 10.0; Win64; x64) AppleWebKit/537.36 (KHTML, like Gecko) Chrome/127.0.0.0 Safari/537.36" version="24.7.7">
  <diagram name="Trang-1" id="hWV76w_24OCX6BgP3KhN">
    <mxGraphModel dx="1357" dy="450" grid="0" gridSize="10" guides="1" tooltips="1" connect="1" arrows="1" fold="1" page="0" pageScale="1" pageWidth="827" pageHeight="1169" math="0" shadow="0">
      <root>
        <mxCell id="0" />
        <mxCell id="1" parent="0" />
        <mxCell id="4tLZV9xy6Pe-YKe0V8jk-60" value="" style="rounded=1;whiteSpace=wrap;html=1;" parent="1" vertex="1">
          <mxGeometry x="398" y="263.5" width="791" height="492" as="geometry" />
        </mxCell>
        <mxCell id="4tLZV9xy6Pe-YKe0V8jk-61" value="Users" style="sketch=0;outlineConnect=0;gradientColor=none;fontColor=#545B64;strokeColor=none;fillColor=#879196;dashed=0;verticalLabelPosition=bottom;verticalAlign=top;align=center;html=1;fontSize=12;fontStyle=0;aspect=fixed;shape=mxgraph.aws4.illustration_users;pointerEvents=1" parent="1" vertex="1">
          <mxGeometry x="-260" y="468.5" width="100" height="100" as="geometry" />
        </mxCell>
        <mxCell id="4tLZV9xy6Pe-YKe0V8jk-62" value="" style="sketch=0;outlineConnect=0;fontColor=#232F3E;gradientColor=none;fillColor=#232F3D;strokeColor=none;dashed=0;verticalLabelPosition=bottom;verticalAlign=top;align=center;html=1;fontSize=12;fontStyle=0;aspect=fixed;pointerEvents=1;shape=mxgraph.aws4.globe;" parent="1" vertex="1">
          <mxGeometry x="-11" y="465.5" width="106" height="106" as="geometry" />
        </mxCell>
        <mxCell id="4tLZV9xy6Pe-YKe0V8jk-125" style="edgeStyle=orthogonalEdgeStyle;rounded=0;orthogonalLoop=1;jettySize=auto;html=1;" parent="1" source="4tLZV9xy6Pe-YKe0V8jk-63" target="4tLZV9xy6Pe-YKe0V8jk-66" edge="1">
          <mxGeometry relative="1" as="geometry">
            <Array as="points">
              <mxPoint x="727" y="510" />
              <mxPoint x="727" y="585" />
              <mxPoint x="877" y="585" />
            </Array>
          </mxGeometry>
        </mxCell>
        <mxCell id="4tLZV9xy6Pe-YKe0V8jk-135" value="VLAN7" style="edgeLabel;html=1;align=center;verticalAlign=middle;resizable=0;points=[];" parent="4tLZV9xy6Pe-YKe0V8jk-125" vertex="1" connectable="0">
          <mxGeometry x="0.2419" y="-2" relative="1" as="geometry">
            <mxPoint as="offset" />
          </mxGeometry>
        </mxCell>
        <mxCell id="4tLZV9xy6Pe-YKe0V8jk-63" value="" style="sketch=0;outlineConnect=0;fontColor=#232F3E;gradientColor=none;fillColor=#232F3D;strokeColor=none;dashed=0;verticalLabelPosition=bottom;verticalAlign=top;align=center;html=1;fontSize=12;fontStyle=0;aspect=fixed;pointerEvents=1;shape=mxgraph.aws4.client;" parent="1" vertex="1">
          <mxGeometry x="590" y="471.27" width="99" height="96.46" as="geometry" />
        </mxCell>
        <mxCell id="4tLZV9xy6Pe-YKe0V8jk-64" value="" style="sketch=0;outlineConnect=0;fontColor=#232F3E;gradientColor=none;fillColor=#232F3D;strokeColor=none;dashed=0;verticalLabelPosition=bottom;verticalAlign=top;align=center;html=1;fontSize=12;fontStyle=0;aspect=fixed;pointerEvents=1;shape=mxgraph.aws4.servers;" parent="1" vertex="1">
          <mxGeometry x="838" y="468" width="78" height="78" as="geometry" />
        </mxCell>
        <mxCell id="4tLZV9xy6Pe-YKe0V8jk-66" value="" style="sketch=0;outlineConnect=0;fontColor=#232F3E;gradientColor=none;fillColor=#232F3D;strokeColor=none;dashed=0;verticalLabelPosition=bottom;verticalAlign=top;align=center;html=1;fontSize=12;fontStyle=0;aspect=fixed;pointerEvents=1;shape=mxgraph.aws4.servers;" parent="1" vertex="1">
          <mxGeometry x="838" y="607.5" width="78" height="78" as="geometry" />
        </mxCell>
        <mxCell id="4tLZV9xy6Pe-YKe0V8jk-67" value="elearning" style="text;html=1;align=center;verticalAlign=middle;whiteSpace=wrap;rounded=0;" parent="1" vertex="1">
          <mxGeometry x="847" y="541.5" width="60" height="30" as="geometry" />
        </mxCell>
        <mxCell id="4tLZV9xy6Pe-YKe0V8jk-69" value="smartcity" style="text;html=1;align=center;verticalAlign=middle;whiteSpace=wrap;rounded=0;" parent="1" vertex="1">
          <mxGeometry x="847" y="685.5" width="60" height="30" as="geometry" />
        </mxCell>
        <mxCell id="4tLZV9xy6Pe-YKe0V8jk-70" value="routing&lt;div&gt;pfSense&lt;/div&gt;" style="text;html=1;align=center;verticalAlign=middle;whiteSpace=wrap;rounded=0;" parent="1" vertex="1">
          <mxGeometry x="597.25" y="571.5" width="84.5" height="30" as="geometry" />
        </mxCell>
        <mxCell id="4tLZV9xy6Pe-YKe0V8jk-71" value="" style="endArrow=classic;startArrow=classic;html=1;rounded=0;" parent="1" source="4tLZV9xy6Pe-YKe0V8jk-61" target="4tLZV9xy6Pe-YKe0V8jk-62" edge="1">
          <mxGeometry width="50" height="50" relative="1" as="geometry">
            <mxPoint x="-100" y="560.5" as="sourcePoint" />
            <mxPoint x="-50" y="510.5" as="targetPoint" />
          </mxGeometry>
        </mxCell>
        <mxCell id="4tLZV9xy6Pe-YKe0V8jk-72" value="" style="endArrow=classic;startArrow=classic;html=1;rounded=0;" parent="1" edge="1">
          <mxGeometry width="50" height="50" relative="1" as="geometry">
            <mxPoint x="95" y="518.05" as="sourcePoint" />
            <mxPoint x="244" y="518.05" as="targetPoint" />
          </mxGeometry>
        </mxCell>
        <mxCell id="4tLZV9xy6Pe-YKe0V8jk-73" value="" style="endArrow=classic;startArrow=classic;html=1;rounded=0;" parent="1" edge="1">
          <mxGeometry width="50" height="50" relative="1" as="geometry">
            <mxPoint x="688.5737224700306" y="482.9834345003155" as="sourcePoint" />
            <mxPoint x="838" y="481.4105263157894" as="targetPoint" />
          </mxGeometry>
        </mxCell>
        <mxCell id="4tLZV9xy6Pe-YKe0V8jk-134" value="VLAN6" style="edgeLabel;html=1;align=center;verticalAlign=middle;resizable=0;points=[];" parent="4tLZV9xy6Pe-YKe0V8jk-73" vertex="1" connectable="0">
          <mxGeometry x="0.3018" relative="1" as="geometry">
            <mxPoint as="offset" />
          </mxGeometry>
        </mxCell>
        <mxCell id="4tLZV9xy6Pe-YKe0V8jk-76" value="Internet" style="text;html=1;align=center;verticalAlign=middle;whiteSpace=wrap;rounded=0;" parent="1" vertex="1">
          <mxGeometry x="-0.25" y="574.5" width="84.5" height="30" as="geometry" />
        </mxCell>
        <mxCell id="4tLZV9xy6Pe-YKe0V8jk-122" style="edgeStyle=orthogonalEdgeStyle;rounded=0;orthogonalLoop=1;jettySize=auto;html=1;" parent="1" source="4tLZV9xy6Pe-YKe0V8jk-77" target="4tLZV9xy6Pe-YKe0V8jk-119" edge="1">
          <mxGeometry relative="1" as="geometry">
            <Array as="points">
              <mxPoint x="279" y="368" />
            </Array>
          </mxGeometry>
        </mxCell>
        <mxCell id="4tLZV9xy6Pe-YKe0V8jk-127" value="VLAN0" style="edgeLabel;html=1;align=center;verticalAlign=middle;resizable=0;points=[];" parent="4tLZV9xy6Pe-YKe0V8jk-122" vertex="1" connectable="0">
          <mxGeometry x="-0.2282" y="-1" relative="1" as="geometry">
            <mxPoint as="offset" />
          </mxGeometry>
        </mxCell>
        <mxCell id="4tLZV9xy6Pe-YKe0V8jk-128" style="edgeStyle=orthogonalEdgeStyle;rounded=0;orthogonalLoop=1;jettySize=auto;html=1;exitX=1;exitY=0;exitDx=0;exitDy=0;exitPerimeter=0;" parent="1" source="4tLZV9xy6Pe-YKe0V8jk-77" target="4tLZV9xy6Pe-YKe0V8jk-63" edge="1">
          <mxGeometry relative="1" as="geometry">
            <Array as="points">
              <mxPoint x="322" y="452" />
              <mxPoint x="639" y="452" />
            </Array>
          </mxGeometry>
        </mxCell>
        <mxCell id="4tLZV9xy6Pe-YKe0V8jk-129" value="VLAN0" style="edgeLabel;html=1;align=center;verticalAlign=middle;resizable=0;points=[];" parent="4tLZV9xy6Pe-YKe0V8jk-128" vertex="1" connectable="0">
          <mxGeometry x="0.0148" relative="1" as="geometry">
            <mxPoint as="offset" />
          </mxGeometry>
        </mxCell>
        <mxCell id="4tLZV9xy6Pe-YKe0V8jk-77" value="" style="sketch=0;aspect=fixed;pointerEvents=1;shadow=0;dashed=0;html=1;strokeColor=none;labelPosition=center;verticalLabelPosition=bottom;verticalAlign=top;align=center;fillColor=#00188D;shape=mxgraph.mscae.enterprise.router" parent="1" vertex="1">
          <mxGeometry x="236" y="486" width="85.9" height="67" as="geometry" />
        </mxCell>
        <mxCell id="4tLZV9xy6Pe-YKe0V8jk-78" value="" style="endArrow=classic;startArrow=classic;html=1;rounded=0;" parent="1" edge="1">
          <mxGeometry width="50" height="50" relative="1" as="geometry">
            <mxPoint x="324" y="519.5" as="sourcePoint" />
            <mxPoint x="401" y="519.5" as="targetPoint" />
          </mxGeometry>
        </mxCell>
        <mxCell id="4tLZV9xy6Pe-YKe0V8jk-130" value="VLAN0" style="edgeLabel;html=1;align=center;verticalAlign=middle;resizable=0;points=[];" parent="4tLZV9xy6Pe-YKe0V8jk-78" vertex="1" connectable="0">
          <mxGeometry x="-0.1299" y="-1" relative="1" as="geometry">
            <mxPoint x="6" y="-2" as="offset" />
          </mxGeometry>
        </mxCell>
        <mxCell id="4tLZV9xy6Pe-YKe0V8jk-79" value="Router" style="text;html=1;align=center;verticalAlign=middle;whiteSpace=wrap;rounded=0;" parent="1" vertex="1">
          <mxGeometry x="249" y="565.5" width="60" height="30" as="geometry" />
        </mxCell>
        <mxCell id="4tLZV9xy6Pe-YKe0V8jk-80" value="Service" style="rounded=1;whiteSpace=wrap;html=1;" parent="1" vertex="1">
          <mxGeometry x="1058" y="465.5" width="120" height="23.5" as="geometry" />
        </mxCell>
        <mxCell id="4tLZV9xy6Pe-YKe0V8jk-81" value="Service" style="rounded=1;whiteSpace=wrap;html=1;" parent="1" vertex="1">
          <mxGeometry x="1058" y="495" width="120" height="23.5" as="geometry" />
        </mxCell>
        <mxCell id="4tLZV9xy6Pe-YKe0V8jk-82" value="Service" style="rounded=1;whiteSpace=wrap;html=1;" parent="1" vertex="1">
          <mxGeometry x="1058" y="525" width="120" height="23.5" as="geometry" />
        </mxCell>
        <mxCell id="4tLZV9xy6Pe-YKe0V8jk-83" value="" style="sketch=0;outlineConnect=0;fontColor=#232F3E;gradientColor=none;fillColor=#232F3D;strokeColor=none;dashed=0;verticalLabelPosition=bottom;verticalAlign=top;align=center;html=1;fontSize=12;fontStyle=0;aspect=fixed;pointerEvents=1;shape=mxgraph.aws4.client;" parent="1" vertex="1">
          <mxGeometry x="961" y="482.15999999999997" width="51" height="49.69" as="geometry" />
        </mxCell>
        <mxCell id="4tLZV9xy6Pe-YKe0V8jk-84" value="Load Balance&lt;div&gt;HAProxy&lt;/div&gt;" style="text;html=1;align=center;verticalAlign=middle;whiteSpace=wrap;rounded=0;" parent="1" vertex="1">
          <mxGeometry x="944.25" y="539" width="84.5" height="30" as="geometry" />
        </mxCell>
        <mxCell id="4tLZV9xy6Pe-YKe0V8jk-85" value="" style="endArrow=classic;startArrow=classic;html=1;rounded=0;" parent="1" source="4tLZV9xy6Pe-YKe0V8jk-64" target="4tLZV9xy6Pe-YKe0V8jk-83" edge="1">
          <mxGeometry width="50" height="50" relative="1" as="geometry">
            <mxPoint x="228" y="714" as="sourcePoint" />
            <mxPoint x="278" y="664" as="targetPoint" />
          </mxGeometry>
        </mxCell>
        <mxCell id="4tLZV9xy6Pe-YKe0V8jk-86" value="" style="endArrow=classic;html=1;rounded=0;exitX=0.723;exitY=0.183;exitDx=0;exitDy=0;exitPerimeter=0;" parent="1" target="4tLZV9xy6Pe-YKe0V8jk-83" edge="1">
          <mxGeometry width="50" height="50" relative="1" as="geometry">
            <mxPoint x="1034.274" y="507.0559999999999" as="sourcePoint" />
            <mxPoint x="1061" y="589" as="targetPoint" />
          </mxGeometry>
        </mxCell>
        <mxCell id="4tLZV9xy6Pe-YKe0V8jk-87" value="" style="endArrow=classic;html=1;rounded=0;entryX=0;entryY=0.5;entryDx=0;entryDy=0;exitX=0.724;exitY=0.114;exitDx=0;exitDy=0;exitPerimeter=0;" parent="1" target="4tLZV9xy6Pe-YKe0V8jk-80" edge="1">
          <mxGeometry width="50" height="50" relative="1" as="geometry">
            <mxPoint x="1034.9120000000003" y="477.24800000000005" as="sourcePoint" />
            <mxPoint x="1047" y="568" as="targetPoint" />
          </mxGeometry>
        </mxCell>
        <mxCell id="4tLZV9xy6Pe-YKe0V8jk-88" value="" style="endArrow=classic;html=1;rounded=0;entryX=0;entryY=0.5;entryDx=0;entryDy=0;exitX=0.724;exitY=0.114;exitDx=0;exitDy=0;exitPerimeter=0;" parent="1" edge="1">
          <mxGeometry width="50" height="50" relative="1" as="geometry">
            <mxPoint x="1035" y="507" as="sourcePoint" />
            <mxPoint x="1058" y="507" as="targetPoint" />
          </mxGeometry>
        </mxCell>
        <mxCell id="4tLZV9xy6Pe-YKe0V8jk-89" value="" style="endArrow=classic;html=1;rounded=0;entryX=0;entryY=0.5;entryDx=0;entryDy=0;exitX=0.724;exitY=0.114;exitDx=0;exitDy=0;exitPerimeter=0;" parent="1" edge="1">
          <mxGeometry width="50" height="50" relative="1" as="geometry">
            <mxPoint x="1035" y="536" as="sourcePoint" />
            <mxPoint x="1058" y="536" as="targetPoint" />
          </mxGeometry>
        </mxCell>
        <mxCell id="4tLZV9xy6Pe-YKe0V8jk-90" value="" style="endArrow=none;html=1;rounded=0;entryX=0.724;entryY=0.113;entryDx=0;entryDy=0;entryPerimeter=0;exitX=0.723;exitY=0.25;exitDx=0;exitDy=0;exitPerimeter=0;" parent="1" edge="1">
          <mxGeometry width="50" height="50" relative="1" as="geometry">
            <mxPoint x="1034.274" y="536" as="sourcePoint" />
            <mxPoint x="1034.9119999999998" y="476.81600000000003" as="targetPoint" />
          </mxGeometry>
        </mxCell>
        <mxCell id="4tLZV9xy6Pe-YKe0V8jk-102" value="Service" style="rounded=1;whiteSpace=wrap;html=1;" parent="1" vertex="1">
          <mxGeometry x="1058" y="604.5" width="120" height="23.5" as="geometry" />
        </mxCell>
        <mxCell id="4tLZV9xy6Pe-YKe0V8jk-103" value="Service" style="rounded=1;whiteSpace=wrap;html=1;" parent="1" vertex="1">
          <mxGeometry x="1058" y="634" width="120" height="23.5" as="geometry" />
        </mxCell>
        <mxCell id="4tLZV9xy6Pe-YKe0V8jk-104" value="Service" style="rounded=1;whiteSpace=wrap;html=1;" parent="1" vertex="1">
          <mxGeometry x="1058" y="664" width="120" height="23.5" as="geometry" />
        </mxCell>
        <mxCell id="4tLZV9xy6Pe-YKe0V8jk-105" value="" style="sketch=0;outlineConnect=0;fontColor=#232F3E;gradientColor=none;fillColor=#232F3D;strokeColor=none;dashed=0;verticalLabelPosition=bottom;verticalAlign=top;align=center;html=1;fontSize=12;fontStyle=0;aspect=fixed;pointerEvents=1;shape=mxgraph.aws4.client;" parent="1" vertex="1">
          <mxGeometry x="961" y="621.16" width="51" height="49.69" as="geometry" />
        </mxCell>
        <mxCell id="4tLZV9xy6Pe-YKe0V8jk-106" value="Load Balance&lt;div&gt;HAProxy&lt;/div&gt;" style="text;html=1;align=center;verticalAlign=middle;whiteSpace=wrap;rounded=0;" parent="1" vertex="1">
          <mxGeometry x="944.25" y="678" width="84.5" height="30" as="geometry" />
        </mxCell>
        <mxCell id="4tLZV9xy6Pe-YKe0V8jk-107" value="" style="endArrow=classic;startArrow=classic;html=1;rounded=0;" parent="1" target="4tLZV9xy6Pe-YKe0V8jk-105" edge="1">
          <mxGeometry width="50" height="50" relative="1" as="geometry">
            <mxPoint x="916" y="646" as="sourcePoint" />
            <mxPoint x="278" y="803" as="targetPoint" />
          </mxGeometry>
        </mxCell>
        <mxCell id="4tLZV9xy6Pe-YKe0V8jk-108" value="" style="endArrow=classic;html=1;rounded=0;exitX=0.723;exitY=0.183;exitDx=0;exitDy=0;exitPerimeter=0;" parent="1" target="4tLZV9xy6Pe-YKe0V8jk-105" edge="1">
          <mxGeometry width="50" height="50" relative="1" as="geometry">
            <mxPoint x="1034.274" y="646.0559999999999" as="sourcePoint" />
            <mxPoint x="1061" y="728" as="targetPoint" />
          </mxGeometry>
        </mxCell>
        <mxCell id="4tLZV9xy6Pe-YKe0V8jk-109" value="" style="endArrow=classic;html=1;rounded=0;entryX=0;entryY=0.5;entryDx=0;entryDy=0;exitX=0.724;exitY=0.114;exitDx=0;exitDy=0;exitPerimeter=0;" parent="1" target="4tLZV9xy6Pe-YKe0V8jk-102" edge="1">
          <mxGeometry width="50" height="50" relative="1" as="geometry">
            <mxPoint x="1034.9120000000003" y="616.248" as="sourcePoint" />
            <mxPoint x="1047" y="707" as="targetPoint" />
          </mxGeometry>
        </mxCell>
        <mxCell id="4tLZV9xy6Pe-YKe0V8jk-110" value="" style="endArrow=classic;html=1;rounded=0;entryX=0;entryY=0.5;entryDx=0;entryDy=0;exitX=0.724;exitY=0.114;exitDx=0;exitDy=0;exitPerimeter=0;" parent="1" edge="1">
          <mxGeometry width="50" height="50" relative="1" as="geometry">
            <mxPoint x="1035" y="646" as="sourcePoint" />
            <mxPoint x="1058" y="646" as="targetPoint" />
          </mxGeometry>
        </mxCell>
        <mxCell id="4tLZV9xy6Pe-YKe0V8jk-111" value="" style="endArrow=classic;html=1;rounded=0;entryX=0;entryY=0.5;entryDx=0;entryDy=0;exitX=0.724;exitY=0.114;exitDx=0;exitDy=0;exitPerimeter=0;" parent="1" edge="1">
          <mxGeometry width="50" height="50" relative="1" as="geometry">
            <mxPoint x="1035" y="675" as="sourcePoint" />
            <mxPoint x="1058" y="675" as="targetPoint" />
          </mxGeometry>
        </mxCell>
        <mxCell id="4tLZV9xy6Pe-YKe0V8jk-112" value="" style="endArrow=none;html=1;rounded=0;entryX=0.724;entryY=0.113;entryDx=0;entryDy=0;entryPerimeter=0;exitX=0.723;exitY=0.25;exitDx=0;exitDy=0;exitPerimeter=0;" parent="1" edge="1">
          <mxGeometry width="50" height="50" relative="1" as="geometry">
            <mxPoint x="1034.274" y="675" as="sourcePoint" />
            <mxPoint x="1034.9119999999998" y="615.816" as="targetPoint" />
          </mxGeometry>
        </mxCell>
        <mxCell id="4tLZV9xy6Pe-YKe0V8jk-113" value="" style="sketch=0;outlineConnect=0;fontColor=#232F3E;gradientColor=none;fillColor=#232F3D;strokeColor=none;dashed=0;verticalLabelPosition=bottom;verticalAlign=top;align=center;html=1;fontSize=12;fontStyle=0;aspect=fixed;pointerEvents=1;shape=mxgraph.aws4.client;" parent="1" vertex="1">
          <mxGeometry x="406.75" y="472.53999999999996" width="99" height="96.46" as="geometry" />
        </mxCell>
        <mxCell id="4tLZV9xy6Pe-YKe0V8jk-114" value="reverseProxy&lt;div&gt;nginx&lt;/div&gt;" style="text;html=1;align=center;verticalAlign=middle;whiteSpace=wrap;rounded=0;" parent="1" vertex="1">
          <mxGeometry x="414" y="569" width="84.5" height="30" as="geometry" />
        </mxCell>
        <mxCell id="4tLZV9xy6Pe-YKe0V8jk-115" value="" style="endArrow=classic;startArrow=classic;html=1;rounded=0;" parent="1" source="4tLZV9xy6Pe-YKe0V8jk-113" target="4tLZV9xy6Pe-YKe0V8jk-63" edge="1">
          <mxGeometry width="50" height="50" relative="1" as="geometry">
            <mxPoint x="387" y="698" as="sourcePoint" />
            <mxPoint x="437" y="648" as="targetPoint" />
          </mxGeometry>
        </mxCell>
        <mxCell id="4tLZV9xy6Pe-YKe0V8jk-131" value="VLAN3" style="edgeLabel;html=1;align=center;verticalAlign=middle;resizable=0;points=[];" parent="4tLZV9xy6Pe-YKe0V8jk-115" vertex="1" connectable="0">
          <mxGeometry x="-0.0481" y="-1" relative="1" as="geometry">
            <mxPoint as="offset" />
          </mxGeometry>
        </mxCell>
        <mxCell id="4tLZV9xy6Pe-YKe0V8jk-116" value="" style="group" parent="1" vertex="1" connectable="0">
          <mxGeometry x="754" y="163" width="99" height="131.23000000000002" as="geometry" />
        </mxCell>
        <mxCell id="4tLZV9xy6Pe-YKe0V8jk-117" value="" style="sketch=0;outlineConnect=0;fontColor=#232F3E;gradientColor=none;fillColor=#232F3D;strokeColor=none;dashed=0;verticalLabelPosition=bottom;verticalAlign=top;align=center;html=1;fontSize=12;fontStyle=0;aspect=fixed;pointerEvents=1;shape=mxgraph.aws4.client;" parent="4tLZV9xy6Pe-YKe0V8jk-116" vertex="1">
          <mxGeometry y="34.77000000000001" width="99" height="96.46" as="geometry" />
        </mxCell>
        <mxCell id="4tLZV9xy6Pe-YKe0V8jk-118" value="Host machine" style="text;html=1;align=center;verticalAlign=middle;whiteSpace=wrap;rounded=0;" parent="4tLZV9xy6Pe-YKe0V8jk-116" vertex="1">
          <mxGeometry x="19.5" width="60" height="30" as="geometry" />
        </mxCell>
        <mxCell id="4tLZV9xy6Pe-YKe0V8jk-123" style="edgeStyle=orthogonalEdgeStyle;rounded=0;orthogonalLoop=1;jettySize=auto;html=1;" parent="1" source="4tLZV9xy6Pe-YKe0V8jk-119" target="4tLZV9xy6Pe-YKe0V8jk-64" edge="1">
          <mxGeometry relative="1" as="geometry">
            <Array as="points">
              <mxPoint x="877" y="348" />
            </Array>
          </mxGeometry>
        </mxCell>
        <mxCell id="4tLZV9xy6Pe-YKe0V8jk-132" value="VLAN4" style="edgeLabel;html=1;align=center;verticalAlign=middle;resizable=0;points=[];" parent="4tLZV9xy6Pe-YKe0V8jk-123" vertex="1" connectable="0">
          <mxGeometry x="-0.2149" y="-1" relative="1" as="geometry">
            <mxPoint as="offset" />
          </mxGeometry>
        </mxCell>
        <mxCell id="4tLZV9xy6Pe-YKe0V8jk-124" style="edgeStyle=orthogonalEdgeStyle;rounded=0;orthogonalLoop=1;jettySize=auto;html=1;" parent="1" source="4tLZV9xy6Pe-YKe0V8jk-119" target="4tLZV9xy6Pe-YKe0V8jk-66" edge="1">
          <mxGeometry relative="1" as="geometry">
            <Array as="points">
              <mxPoint x="758" y="372" />
              <mxPoint x="758" y="647" />
            </Array>
          </mxGeometry>
        </mxCell>
        <mxCell id="4tLZV9xy6Pe-YKe0V8jk-133" value="VLAN5" style="edgeLabel;html=1;align=center;verticalAlign=middle;resizable=0;points=[];" parent="4tLZV9xy6Pe-YKe0V8jk-124" vertex="1" connectable="0">
          <mxGeometry x="-0.4986" y="-3" relative="1" as="geometry">
            <mxPoint as="offset" />
          </mxGeometry>
        </mxCell>
        <mxCell id="4tLZV9xy6Pe-YKe0V8jk-119" value="" style="sketch=0;outlineConnect=0;fontColor=#232F3E;gradientColor=none;fillColor=#232F3D;strokeColor=none;dashed=0;verticalLabelPosition=bottom;verticalAlign=top;align=center;html=1;fontSize=12;fontStyle=0;aspect=fixed;pointerEvents=1;shape=mxgraph.aws4.client;" parent="1" vertex="1">
          <mxGeometry x="590" y="324.02" width="99" height="96.46" as="geometry" />
        </mxCell>
        <mxCell id="4tLZV9xy6Pe-YKe0V8jk-121" value="jumper" style="text;html=1;align=center;verticalAlign=middle;whiteSpace=wrap;rounded=0;" parent="1" vertex="1">
          <mxGeometry x="597.25" y="420.48" width="84.5" height="30" as="geometry" />
        </mxCell>
      </root>
    </mxGraphModel>
  </diagram>
</mxfile>
